<svg width="234" height="47" viewBox="0 0 234 47" fill="none" xmlns="http://www.w3.org/2000/svg">
<path d="M4.04297 36C3.22266 36 2.8125 35.5605 2.8125 34.6816V12.1113C2.8125 11.2324 3.22266 10.793 4.04297 10.793H6.64453C7.65234 10.793 8.41406 11.2031 8.92969 12.0234L17.8945 26.4199H18.0176C17.959 25.7168 17.9297 25.0137 17.9297 24.3105V12.1113C17.9297 11.2324 18.3398 10.793 19.1602 10.793H21.832C22.6523 10.793 23.0625 11.2324 23.0625 12.1113V34.6816C23.0625 35.5605 22.6523 36 21.832 36H19.4062C18.3984 36 17.6367 35.5898 17.1211 34.7695L7.98047 20.1094H7.85742C7.91602 20.8125 7.94531 21.5156 7.94531 22.2188V34.6816C7.94531 35.5605 7.53516 36 6.71484 36H4.04297ZM27.2812 26.7715C27.2812 23.8066 28.0195 21.4688 29.4961 19.7578C30.9844 18.0469 33.082 17.1914 35.7891 17.1914C38.9297 17.1914 41.2617 18 42.7852 19.6172C44.3086 21.2344 45.0703 23.8359 45.0703 27.4219C45.0703 28.125 44.7422 28.4766 44.0859 28.4766H32.4844C32.6719 30.4219 33.1523 31.6465 33.9258 32.1504C34.6992 32.6543 35.5957 32.9062 36.6152 32.9062C37.5879 32.9062 38.332 32.7773 38.8477 32.5195C39.3633 32.2617 39.7969 31.9102 40.1484 31.4648C40.5469 30.9492 41.0391 30.8672 41.625 31.2188L43.3828 32.291C44.0742 32.7129 44.1738 33.2168 43.6816 33.8027C42.9668 34.6582 42.1289 35.2969 41.168 35.7188C40.207 36.1406 38.6895 36.3516 36.6152 36.3516C33.252 36.3516 30.8555 35.4961 29.4258 33.7852C27.9961 32.0742 27.2812 29.7363 27.2812 26.7715ZM32.502 24.9609H40.1484C40.1484 23.6953 39.832 22.6641 39.1992 21.8672C38.5664 21.0586 37.5586 20.6543 36.1758 20.6543C35.0742 20.6543 34.2012 21.041 33.5566 21.8145C32.9121 22.5762 32.5605 23.625 32.502 24.9609ZM49.957 36C49.2539 36 48.9023 35.6484 48.9023 34.9453V11.1094C48.9023 10.4062 49.2539 10.0547 49.957 10.0547H52.7695C53.4727 10.0547 53.8242 10.4062 53.8242 11.1094V18.2109C53.8242 18.6797 53.8008 19.1484 53.7539 19.6172H53.8242C54.4336 18.6094 55.1133 17.9531 55.8633 17.6484C56.6133 17.3438 57.5156 17.1914 58.5703 17.1914C61.3242 17.1914 63.2578 18.1465 64.3711 20.0566C65.4961 21.9551 66.0586 24.1934 66.0586 26.7715C66.0586 29.3496 65.4961 31.5938 64.3711 33.5039C63.2578 35.4023 61.3242 36.3516 58.5703 36.3516C57.5156 36.3516 56.6133 36.1992 55.8633 35.8945C55.1133 35.5898 54.4336 34.9336 53.8242 33.9258H53.7539L53.6836 34.9453C53.6367 35.6484 53.3203 36 52.7344 36H49.957ZM53.8242 27.5625C53.8242 29.1445 54.1348 30.4336 54.7559 31.4297C55.3887 32.4141 56.1445 32.9062 57.0234 32.9062C58.6055 32.9062 59.6367 32.3555 60.1172 31.2539C60.6094 30.1406 60.8555 28.6465 60.8555 26.7715C60.8555 24.8965 60.6094 23.4082 60.1172 22.3066C59.6367 21.1934 58.6055 20.6367 57.0234 20.6367C56.1445 20.6367 55.3887 21.1348 54.7559 22.1309C54.1348 23.1152 53.8242 24.3984 53.8242 25.9805V27.5625ZM69.8203 28.3359V18.5977C69.8203 17.8945 70.1719 17.543 70.875 17.543H73.6875C74.3906 17.543 74.7422 17.8945 74.7422 18.5977V27.0703C74.7422 29.625 74.918 31.2363 75.2695 31.9043C75.6211 32.5723 76.3594 32.9062 77.4844 32.9062C78.6797 32.9062 79.5879 32.4316 80.209 31.4824C80.8301 30.5215 81.1406 28.5352 81.1406 25.5234V18.5977C81.1406 17.8945 81.4922 17.543 82.1953 17.543H85.0078C85.7109 17.543 86.0625 17.8945 86.0625 18.5977V34.9453C86.0625 35.6484 85.7109 36 85.0078 36H82.2305C81.5273 36 81.1758 35.6484 81.1758 34.9453V33.9258H81.1055C80.5664 34.8516 79.8809 35.4902 79.0488 35.8418C78.2168 36.1816 77.2324 36.3516 76.0957 36.3516C74.3027 36.3516 72.8086 35.7773 71.6133 34.6289C70.418 33.4805 69.8203 31.3828 69.8203 28.3359ZM91.8984 36C91.1953 36 90.8438 35.6484 90.8438 34.9453V14.1855C90.8438 13.6582 90.9668 13.1777 91.2129 12.7441L92.5664 10.3711C92.8242 9.92578 93.1289 9.70312 93.4805 9.70312H94.7109C95.4141 9.70312 95.7656 10.0547 95.7656 10.7578V34.9453C95.7656 35.6484 95.4141 36 94.7109 36H91.8984ZM99.5625 31.0781C99.5625 28.7344 100.682 27.0352 102.92 25.9805C105.158 24.9258 107.713 24.3633 110.584 24.293V23.5898C110.584 22.5117 110.314 21.75 109.775 21.3047C109.236 20.8594 108.486 20.6367 107.525 20.6367C106.846 20.6367 106.242 20.7363 105.715 20.9355C105.199 21.123 104.748 21.3457 104.361 21.6035C103.986 21.8496 103.646 22.1016 103.342 22.3594C102.803 22.8281 102.357 22.8516 102.006 22.4297L100.547 20.6367C100.184 20.1914 100.271 19.7344 100.811 19.2656C101.221 18.9023 101.695 18.5859 102.234 18.3164C102.785 18.0469 103.512 17.7949 104.414 17.5605C105.316 17.3145 106.488 17.1914 107.93 17.1914C110.367 17.1914 112.236 17.7539 113.537 18.8789C114.85 20.0039 115.506 21.6621 115.506 23.8535V34.9453C115.506 35.6484 115.154 36 114.451 36H111.568C110.936 36 110.619 35.6484 110.619 34.9453V34.418H110.584C109.893 35.0859 109.061 35.5781 108.088 35.8945C107.127 36.1992 106.242 36.3516 105.434 36.3516C103.512 36.3516 102.053 35.8828 101.057 34.9453C100.061 33.9961 99.5625 32.707 99.5625 31.0781ZM104.766 30.9727C104.766 31.3828 104.848 31.7402 105.012 32.0449C105.176 32.3379 105.434 32.5547 105.785 32.6953C106.137 32.8359 106.529 32.9062 106.963 32.9062C107.561 32.9062 108.141 32.8242 108.703 32.6602C109.266 32.4961 109.893 32.1094 110.584 31.5V27.6855C108.615 27.9082 107.297 28.1953 106.629 28.5469C105.961 28.8984 105.48 29.2617 105.188 29.6367C104.906 30.0117 104.766 30.457 104.766 30.9727ZM119.9 28.1602C119.197 28.1602 118.846 27.8672 118.846 27.2812V25.2773C118.846 24.6914 119.197 24.3984 119.9 24.3984H128.232C128.936 24.3984 129.287 24.6914 129.287 25.2773V27.2812C129.287 27.8672 128.936 28.1602 128.232 28.1602H119.9ZM131.73 23.3965C131.73 19.3535 132.756 16.1426 134.807 13.7637C136.857 11.3848 139.816 10.1953 143.684 10.1953C145.91 10.1953 147.797 10.541 149.344 11.2324C150.891 11.9238 151.98 12.9258 152.613 14.2383C153.035 15.1055 152.965 15.6914 152.402 15.9961L150.293 17.1211C149.555 17.5195 148.945 17.2969 148.465 16.4531C148.16 15.9141 147.592 15.4277 146.76 14.9941C145.939 14.5605 144.973 14.3438 143.859 14.3438C141.398 14.3438 139.676 15.123 138.691 16.6816C137.707 18.2285 137.215 20.4668 137.215 23.3965C137.215 26.3262 137.707 28.5703 138.691 30.1289C139.676 31.6758 141.398 32.4492 143.859 32.4492C145.184 32.4492 146.297 32.1504 147.199 31.5527C148.113 30.9551 148.746 30.3867 149.098 29.8477C149.672 28.9688 150.281 28.7461 150.926 29.1797L153.035 30.5859C153.609 30.9727 153.668 31.5586 153.211 32.3438C152.531 33.5156 151.365 34.5176 149.713 35.3496C148.061 36.1816 146.051 36.5977 143.684 36.5977C139.875 36.5977 136.928 35.4082 134.842 33.0293C132.768 30.6504 131.73 27.4395 131.73 23.3965ZM156.551 31.0781C156.551 28.7344 157.67 27.0352 159.908 25.9805C162.146 24.9258 164.701 24.3633 167.572 24.293V23.5898C167.572 22.5117 167.303 21.75 166.764 21.3047C166.225 20.8594 165.475 20.6367 164.514 20.6367C163.834 20.6367 163.23 20.7363 162.703 20.9355C162.188 21.123 161.736 21.3457 161.35 21.6035C160.975 21.8496 160.635 22.1016 160.33 22.3594C159.791 22.8281 159.346 22.8516 158.994 22.4297L157.535 20.6367C157.172 20.1914 157.26 19.7344 157.799 19.2656C158.209 18.9023 158.684 18.5859 159.223 18.3164C159.773 18.0469 160.5 17.7949 161.402 17.5605C162.305 17.3145 163.477 17.1914 164.918 17.1914C167.355 17.1914 169.225 17.7539 170.525 18.8789C171.838 20.0039 172.494 21.6621 172.494 23.8535V34.9453C172.494 35.6484 172.143 36 171.439 36H168.557C167.924 36 167.607 35.6484 167.607 34.9453V34.418H167.572C166.881 35.0859 166.049 35.5781 165.076 35.8945C164.115 36.1992 163.23 36.3516 162.422 36.3516C160.5 36.3516 159.041 35.8828 158.045 34.9453C157.049 33.9961 156.551 32.707 156.551 31.0781ZM161.754 30.9727C161.754 31.3828 161.836 31.7402 162 32.0449C162.164 32.3379 162.422 32.5547 162.773 32.6953C163.125 32.8359 163.518 32.9062 163.951 32.9062C164.549 32.9062 165.129 32.8242 165.691 32.6602C166.254 32.4961 166.881 32.1094 167.572 31.5V27.6855C165.604 27.9082 164.285 28.1953 163.617 28.5469C162.949 28.8984 162.469 29.2617 162.176 29.6367C161.895 30.0117 161.754 30.457 161.754 30.9727ZM178.348 36C177.645 36 177.293 35.6484 177.293 34.9453V18.5977C177.293 17.8945 177.645 17.543 178.348 17.543H181.125C181.828 17.543 182.18 17.8945 182.18 18.5977V20.0391H182.25C182.555 19.2891 183.064 18.627 183.779 18.0527C184.494 17.4785 185.338 17.1914 186.311 17.1914C186.979 17.1914 187.529 17.2734 187.963 17.4375C188.373 17.5898 188.531 17.8711 188.438 18.2812L187.945 20.373C187.84 20.8418 187.523 20.9824 186.996 20.7949C186.691 20.6895 186.398 20.6367 186.117 20.6367C184.992 20.6367 184.061 21.3105 183.322 22.6582C182.584 24.0059 182.215 25.9688 182.215 28.5469V34.9453C182.215 35.6484 181.863 36 181.16 36H178.348ZM190.125 26.7715C190.125 23.8066 190.863 21.4688 192.34 19.7578C193.828 18.0469 195.926 17.1914 198.633 17.1914C201.773 17.1914 204.105 18 205.629 19.6172C207.152 21.2344 207.914 23.8359 207.914 27.4219C207.914 28.125 207.586 28.4766 206.93 28.4766H195.328C195.516 30.4219 195.996 31.6465 196.77 32.1504C197.543 32.6543 198.439 32.9062 199.459 32.9062C200.432 32.9062 201.176 32.7773 201.691 32.5195C202.207 32.2617 202.641 31.9102 202.992 31.4648C203.391 30.9492 203.883 30.8672 204.469 31.2188L206.227 32.291C206.918 32.7129 207.018 33.2168 206.525 33.8027C205.811 34.6582 204.973 35.2969 204.012 35.7188C203.051 36.1406 201.533 36.3516 199.459 36.3516C196.096 36.3516 193.699 35.4961 192.27 33.7852C190.84 32.0742 190.125 29.7363 190.125 26.7715ZM195.346 24.9609H202.992C202.992 23.6953 202.676 22.6641 202.043 21.8672C201.41 21.0586 200.402 20.6543 199.02 20.6543C197.918 20.6543 197.045 21.041 196.4 21.8145C195.756 22.5762 195.404 23.625 195.346 24.9609Z" fill="#222C44"/>
<circle cx="225.5" cy="32.5" r="8.5" fill="#6556FF"/>
</svg>
